# xmcd CD database file
#
# Track frame offsets:
#	150
#	12444
#	25853
#	35765
#	47325
#	58460
#	72435
#	84014
#	95895
#	107629
#	118824
#	126595
#	148660
#	160247
#	178932
#	193677
#	211553
#	224719
#	235989
#	251259
#	264225
#
# Disc length: 3709 seconds
#
# Revision: 1
# Processed by: cddbd v1.5.1PL2 Copyright (c) Steve Scherf et al.
# Submitted via: CDex 1.51
#
DISCID=3a0e7b15
DTITLE=Glen Campbell - Legacy 1961-2002 [CD2]
DYEAR=2003
DGENRE=Country
TTITLE0=Galveston
TTITLE1=Where's The Playground, Susie
TTITLE2=This Is Love
TTITLE3=True Grit
TTITLE4=Try A Little Kindness
TTITLE5=Honey Come Back
TTITLE6=One Pair Of Hands
TTITLE7=All I Have To Do Is Dream (With Bobbie Gentry)
TTITLE8=Everything A Man Could Ever Need
TTITLE9=It's Only Make Believe
TTITLE10=Pave Your Way To Tomorrow
TTITLE11=MacArthur Park
TTITLE12=Dream Baby (How Long Must I Dream)
TTITLE13=The Last Time I Saw Her
TTITLE14=I Say A Little Prayer and By The Time I Get To Phoenix (Medley) (With Anne Murray)
TTITLE15=The Last Thing On My Mind
TTITLE16=I Knew Jesus (Before He Was A Star)
TTITLE17=I'm So Lonesome I Could Cry
TTITLE18=Houston (I'm Comin' To See You)
TTITLE19=Bonaparte's Retreat
TTITLE20=The Moon's A Harsh Mistress
EXTD=2003 Capitol Nashville YEAR: 2003
EXTT0=
EXTT1=
EXTT2=
EXTT3=
EXTT4=
EXTT5=
EXTT6=
EXTT7=
EXTT8=
EXTT9=
EXTT10=
EXTT11=
EXTT12=
EXTT13=
EXTT14=
EXTT15=
EXTT16=
EXTT17=
EXTT18=
EXTT19=
EXTT20=
PLAYORDER=
